<?xml version="1.0" encoding="utf-8"?>
<!-- Generator: Adobe Illustrator 25.2.1, SVG Export Plug-In . SVG Version: 6.00 Build 0)  -->
<svg version="1.1" id="Layer_1" xmlns="http://www.w3.org/2000/svg" xmlns:xlink="http://www.w3.org/1999/xlink" x="0px" y="0px"
	 viewBox="0 0 210.9 61.3" style="enable-background:new 0 0 210.9 61.3;" xml:space="preserve">
<style type="text/css">
	.st0{fill:#FFFFFF;}
</style>
<path class="st0" d="M48.4,7.5H37.1v46.2h7.1V31.8h7.9v21.9h7.1V16.6C59.3,10.1,55,7.5,48.4,7.5z M52.1,25h-7.9V13.8h4.2
	c2.2,0.1,3.7,1,3.7,3.9V25z"/>
<path class="st0" d="M104.2,16.8h0.5c6.5,0,10.8,2.6,10.8,9.1v18.7c0,6.5-4.3,9.1-10.8,9.1h-0.5c-6.5,0-10.8-2.6-10.8-9.1V25.9
	C93.4,19.3,97.7,16.8,104.2,16.8z M104.5,47.4c2.3,0,3.9-0.8,3.9-3.9V27c0-3.1-1.6-3.9-3.9-3.9s-3.9,0.9-3.9,3.9v16.5
	C100.5,46.6,102.1,47.4,104.5,47.4z"/>
<path class="st0" d="M137,16.8v26c0,3.3-1.7,4.2-4.2,4.2s-4.2-0.9-4.2-4.2v-26h-7.7V44c0,7,4.6,9.8,11.6,9.8h0.5
	c7,0,11.6-2.8,11.6-9.8V16.8H137z"/>
<path class="st0" d="M77.2,16.7h-4.9V7.5h-7.7v46.2h12.5c6.5,0,10.8-2.6,10.8-9.1V26C88,19.4,83.7,16.7,77.2,16.7z M80.3,42.6
	c0,3.1-1.6,3.9-3.9,3.9h-4.1V24l4.1-0.1c2.3,0,3.9,0.9,3.9,3.9V42.6z"/>
<path class="st0" d="M173.8,23.5v-6.7h-16.1V7.5h-7.6v36.4c0,7,4.6,9.8,11.5,9.8h12.2V47h-12.2c-2.3-0.1-3.9-1.1-3.9-4.2V23.5H173.8
	z"/>
</svg>
