<?xml version="1.0" encoding="utf-8"?>
<!-- Generator: Adobe Illustrator 25.2.1, SVG Export Plug-In . SVG Version: 6.00 Build 0)  -->
<svg version="1.1" id="Layer_1" xmlns="http://www.w3.org/2000/svg" xmlns:xlink="http://www.w3.org/1999/xlink" x="0px" y="0px"
	 viewBox="0 0 210.9 61.3" style="enable-background:new 0 0 210.9 61.3;" xml:space="preserve">
<style type="text/css">
	.st0{fill:#FFFFFF;}
</style>
<path class="st0" d="M59.7,53.7V26.5c0-7-4.6-9.7-11.5-9.8H36v6.7h12.2c2.3,0.1,3.9,1.1,3.9,4.2v4.2h-6.8l0,0
	c-6.6,0.3-9.2,4.5-9.2,11v0.5c0,6.6,2.7,10.4,9.8,10.4L59.7,53.7z M53,39.1v7.4h-6.1c-3.3,0-4.2-1.1-4.2-3.5c0-2.1,0.8-3.6,3.3-3.9
	L53,39.1z"/>
<path class="st0" d="M30.9,24v-6.8c0-6.7-4.5-9.5-11.3-9.5h-0.1c-6.8,0-11.3,2.8-11.3,9.5v27c0,7,4.5,9.5,11.3,9.5h0.1
	c6.8,0,11.3-2.6,11.3-9.5V32H19.9v7.2h3.7V43c0,3.1-1.5,4.1-3.9,4.1s-3.9-1-3.9-4.1V18.3c0-3.1,1.5-4.1,3.9-4.1s3.9,1,3.9,4.1V24
	H30.9z"/>
<polygon class="st0" points="80,46.8 80,7.7 64.8,7.7 64.8,14.5 73.2,14.5 73.2,46.8 64.8,46.8 64.8,53.6 88.4,53.6 88.4,46.8 "/>
<polygon class="st0" points="108.7,46.8 108.7,7.7 93.4,7.7 93.4,14.5 101.8,14.5 101.8,46.8 93.4,46.8 93.4,53.6 117.1,53.6 
	117.1,46.8 "/>
<path class="st0" d="M145.8,26c-0.2-6.6-4.8-9.2-11.6-9.2h-0.5c-7,0-11.6,2.7-11.6,9.8v17.4c0,7,4.6,9.7,11.5,9.8h12.2V47h-12.2
	c-2.3-0.1-3.9-1.1-3.9-4.2v-4.2h16.1L145.8,26L145.8,26z M138.1,31.9h-8.4v-4.1c0-3.3,1.7-4.2,4.2-4.2c2.3,0,3.9,0.8,4.1,3.3
	L138.1,31.9z"/>
<path class="st0" d="M174.6,16.8h-12.1c-7,0-11.6,2.7-11.6,9.7v27.1h7.6V27.7c0-3.3,1.7-4.2,4.2-4.2h11.8"/>
<path class="st0" d="M195.6,16.8v15h-4.5c-2.3-0.1-3.9-1.1-3.9-4.2V16.8h-7.6v12c0,7,4.6,9.8,11.6,9.8h4.5v4.2
	c0,3.1-1.6,4.2-3.9,4.2h-12.2v6.7h12.2c6.9,0,11.5-2.8,11.5-9.7V16.8H195.6z"/>
</svg>
