<?xml version="1.0" encoding="utf-8"?>
<!-- Generator: Adobe Illustrator 25.2.1, SVG Export Plug-In . SVG Version: 6.00 Build 0)  -->
<svg version="1.1" id="Layer_1" xmlns="http://www.w3.org/2000/svg" xmlns:xlink="http://www.w3.org/1999/xlink" x="0px" y="0px"
	 viewBox="0 0 210.9 61.3" style="enable-background:new 0 0 210.9 61.3;" xml:space="preserve">
<style type="text/css">
	.st0{fill:#FFFFFF;}
</style>
<path class="st0" d="M84.6,54.4V27.2c0-7-4.6-9.7-11.5-9.8H60.9v6.7h12.2c2.3,0.1,3.9,1.1,3.9,4.2v4.2h-6.8l0,0
	c-6.6,0.2-9.2,4.5-9.2,10.9V44c0,6.6,2.7,10.4,9.8,10.4L84.6,54.4z M77.9,39.8v7.4h-6.1c-3.3,0-4.2-1.1-4.2-3.4
	c0-2.1,0.8-3.6,3.3-3.9L77.9,39.8z"/>
<path class="st0" d="M55.8,24.6v-6.8c0-6.7-4.5-9.5-11.3-9.5h-0.1c-6.8,0-11.3,2.8-11.3,9.5v27c0,7,4.5,9.5,11.3,9.5h0.1
	c6.8,0,11.3-2.6,11.3-9.5V32.6H44.8v7.2h3.7v3.7c0,3.1-1.5,4.1-3.9,4.1s-3.9-1-3.9-4.1V18.9c0-3.1,1.5-4.1,3.9-4.1s3.9,1,3.9,4.1
	v5.6H55.8z"/>
<path class="st0" d="M126.8,26.1c-0.2-6.2-4.4-8.6-10.8-8.6H89.7v36.9h7.2V23.8h7.8v30.7h7.2V23.8h3.9c2.1,0,3.6,0.7,3.9,3.1v27.6
	h7.2L126.8,26.1L126.8,26.1z"/>
<path class="st0" d="M155.6,26.7c-0.2-6.6-4.8-9.2-11.6-9.2h-0.5c-7,0-11.6,2.7-11.6,9.8v17.4c0,7,4.6,9.7,11.5,9.8h12.2v-6.7h-12.2
	c-2.3-0.1-3.9-1.1-3.9-4.2v-4.2h16.1L155.6,26.7L155.6,26.7z M147.9,32.6h-8.4v-4.2c0-3.3,1.7-4.2,4.2-4.2c2.3,0,3.9,0.8,4.1,3.3
	L147.9,32.6z"/>
<path class="st0" d="M176.1,29.6v-1.7c0-2.9-1.6-3.9-3.8-3.9s-3.8,0.5-3.8,3.4l0,0c0,2.3,0.8,2.6,2.9,3.8l5.3,3c4.4,2.5,7,3,7,7.8
	v2.9c0,7-4.4,9.5-11.2,9.5h-0.1c-6.9,0-11.3-2.4-11.3-9.5v-3.3h7.4v2.2c0,2.8,1.6,4,3.9,4s3.9-0.7,3.9-3.5v0.1c0-2.3-0.7-2.5-3-3.7
	l-5.3-3c-4.4-2.5-7-3.3-7-8v-2.9c0-6.8,4.9-9.4,11.2-9.4h0.1c6.2,0,11.2,2.6,11.2,9.4v2.7H176.1z"/>
</svg>
