<?xml version="1.0" encoding="utf-8"?>
<!-- Generator: Adobe Illustrator 25.2.1, SVG Export Plug-In . SVG Version: 6.00 Build 0)  -->
<svg version="1.1" id="Layer_1" xmlns="http://www.w3.org/2000/svg" xmlns:xlink="http://www.w3.org/1999/xlink" x="0px" y="0px"
	 viewBox="0 0 210.9 61.3" style="enable-background:new 0 0 210.9 61.3;" xml:space="preserve">
<style type="text/css">
	.st0{fill:#FFFFFF;}
</style>
<polygon class="st0" points="62.7,7.6 62.7,25 54.3,25 54.3,7.6 46.6,7.6 46.6,53.7 54.3,53.7 54.3,31.8 62.7,31.8 62.7,53.7 
	70.4,53.7 70.4,7.6 "/>
<path class="st0" d="M86.6,16.8h0.5c6.5,0,10.8,2.6,10.8,9.1v18.7c0,6.5-4.3,9.1-10.8,9.1h-0.5c-6.5,0-10.8-2.6-10.8-9.1V25.9
	C75.7,19.3,80,16.8,86.6,16.8z M86.8,47.5c2.3,0,3.9-0.9,3.9-3.9V27c0-3.1-1.6-3.9-3.9-3.9s-3.9,0.9-3.9,3.9v16.5
	C82.9,46.6,84.5,47.5,86.8,47.5z"/>
<path class="st0" d="M169.8,26c-0.2-6.6-4.8-9.2-11.6-9.2h-0.5c-7,0-11.6,2.7-11.6,9.8V44c0,7,4.6,9.8,11.5,9.8h12.2V47h-12.2
	c-2.3-0.1-3.9-1.1-3.9-4.2v-4.2h16.1L169.8,26L169.8,26z M162.1,31.9h-8.4v-4.1c0-3.3,1.7-4.2,4.2-4.2c2.3,0,3.9,0.8,4.1,3.3
	L162.1,31.9z"/>
<path class="st0" d="M140.6,25.4c-0.2-6.2-4.4-8.6-10.8-8.6h-26.3v37h7.2V23h7.8v30.7h7.2V23h3.9c2.1,0,3.6,0.7,3.9,3.1v27.6h7.2
	L140.6,25.4L140.6,25.4z"/>
</svg>
