<?xml version="1.0" encoding="utf-8"?>
<!-- Generator: Adobe Illustrator 25.2.1, SVG Export Plug-In . SVG Version: 6.00 Build 0)  -->
<svg version="1.1" id="Layer_1" xmlns="http://www.w3.org/2000/svg" xmlns:xlink="http://www.w3.org/1999/xlink" x="0px" y="0px"
	 viewBox="0 0 730 286" style="enable-background:new 0 0 730 286;" xml:space="preserve">
<style type="text/css">
	.st0{fill:#0092EF;}
</style>
<path class="st0" d="M152.4,7l-136,136l136,136l136-136L152.4,7z M43.5,143L153.2,34.5L261.7,143L153.2,251.5L43.5,143z"/>
<path class="st0" d="M199.2,89.8c0,0-26.9,7.5-51.2,24.4c-1.8,1.3-7,5.5-7,5.5l-2,19.7l-9.8,5.9c-0.8,0.7-2.1,0.5-2.7-0.3
	c0,0,0-0.1-0.1-0.1c-6.1-8.1-4.7-14.5-7.9-21.2c-7.2-15.2-23.4-15.8-23.4-15.8c2,3,3.7,6.1,5.1,9.4c0,0-4.5,0.5-5.7,1.3
	c-3.4,2.2-5.4,5.9-6.7,9.7c-0.9,2.2-1.9,4.3-3,6.3c-1.6,3.4-7.7,7.8-8.2,9.2c-1.2,3.2,7.4,9.4,11,9.9c4,0.5,10-5.3,10-5.3
	c1.5,0.4,2.8,1.2,3.8,2.4c1.6,1.7,2.6,3.9,2.8,6.2c0,0-15.5,7.6-18.8,16.8c1.4,1.9,2.8,3.8,4.5,5.5c3.6,3,16.4,8.7,16.4,8.7l-7-13.2
	c1.6-3,7.4-2.7,10.7-1.7c3,0.9,10.2,10,10.2,10l37.2,38.4l-9.6-32.4c0,0,2.2-3.8,8.6-4.7l-11.5-4l-4.2-13.8c0,0,5.2-1.9,6.7-2
	c14.5-0.9,15.1-0.2,23.9-1.5c8-1.1,17.1-21.8,20.9-30.9C199.6,114.9,199.2,89.8,199.2,89.8z"/>
<path d="M392.8,171.8h1.1c14.2,0,23.6,5.6,23.6,19.9v35.4c0,14.2-9.4,19.9-23.6,19.9h-1.1c-14.2,0-23.6-5.6-23.6-19.9v-35.4
	C369.2,177.3,378.6,171.8,392.8,171.8z M393.4,233.2c5.1,0,8.6-1.9,8.6-8.6v-30.6c0-6.7-3.5-8.6-8.6-8.6c-5.1,0-8.6,1.9-8.6,8.6
	v30.6C384.8,231.4,388.3,233.2,393.4,233.2z"/>
<path d="M417.1,76.6c-0.5-13.4-9.7-18.8-23.6-18.8h-1.1c-14.2,0-23.6,5.5-23.6,19.9v35.4c0,14.2,9.3,19.8,23.5,19.9h24.9v-13.7
	h-24.9c-4.7-0.2-7.9-2.2-7.9-8.6v-8.5h32.7L417.1,76.6L417.1,76.6z M401.5,88.6h-17v-8.5c0-6.7,3.5-8.6,8.6-8.6
	c4.6,0,7.9,1.5,8.5,6.8V88.6z"/>
<path d="M654.3,76.6c-0.5-13.4-9.7-18.8-23.6-18.8h-1c-14.2,0-23.6,5.5-23.6,19.9v35.4c0,14.2,9.3,19.8,23.4,19.9h24.8v-13.7h-24.9
	c-4.7-0.2-7.9-2.2-7.9-8.6v-8.5h32.7L654.3,76.6L654.3,76.6z M638.7,88.6h-17.1v-8.5c0-6.7,3.5-8.6,8.6-8.6c4.6,0,7.9,1.5,8.5,6.8
	L638.7,88.6z"/>
<path d="M468.8,52.8c4.6,0,2.8-0.1,7.6-0.1V39.1h-8.2c-14.2,0-23.6,5.5-23.6,19.9v15.7h-16.5v14h16.5V133h15.6V88.6h16.2v-14h-16.2
	V61.3C460.2,54.6,463.7,52.8,468.8,52.8z"/>
<path d="M528.1,52.8c4.6,0,2.8-0.1,7.6-0.1V39.1h-8.2c-14.2,0-23.6,5.5-23.6,19.9v15.7h-16.5v14H504V133h15.6V88.6h16.2v-14h-16.2
	V61.3C519.5,54.6,523,52.8,528.1,52.8z"/>
<path d="M595,57.8h-24.7c-14.2,0-23.6,5.5-23.6,19.9V133h15.6V80.1c0-6.7,3.5-8.6,8.6-8.6c4.6,0,19.3-0.1,24.2-0.1"/>
<path d="M697.9,57.9l0.1,30.5h-9.3c-4.7-0.2-7.9-2.2-7.9-8.6v-22l-15.6,0.1v24.3c0,14.4,9.4,19.9,23.6,19.9h9.1v8.6
	c0,6.4-3.2,8.4-7.9,8.6h-24.9V133h24.9c14.1,0,23.4-5.7,23.4-19.9V57.9H697.9z"/>
<polygon points="459.6,233 459.6,153 428.5,153 428.5,167 445.7,167 445.7,233 428.5,233 428.5,246.9 476.8,246.9 476.8,233 "/>
<polygon points="518.9,233 518.9,153 487.8,153 487.8,167 505,167 505,233 487.8,233 487.8,246.9 536.1,246.9 536.1,233 "/>
<rect x="564.3" y="153" width="14" height="14"/>
<polygon points="578.2,233 578.2,172.9 547.1,172.9 547.1,186.8 564.3,186.8 564.3,233 547.1,233 547.1,246.9 595.4,246.9 
	595.4,233 "/>
<path d="M654.7,190.6c-0.5-13.4-9.7-18.8-23.6-18.8h-24.8v75.1h15.7v-61.4h8.6c4.6,0,7.9,1.5,8.5,6.8v54.7h15.6L654.7,190.6
	L654.7,190.6z"/>
<path d="M696.9,195.7v-3.5c0-5.9-3.3-8-7.9-8s-7.9,1.1-7.9,7l0,0c0,4.8,1.6,5.3,6,7.9l11,6.2c9,5.1,14.3,6.1,14.3,16.2v6
	c0,14.5-9,19.6-23.2,19.6h-0.3c-14.2,0-23.2-5-23.2-19.6v-6.7H681v4.5c0,5.8,3.4,8.3,8,8.3s8-1.5,8-7.2v0.1c0-4.8-1.5-5.2-6.2-7.7
	l-10.9-6.2c-9.1-5.2-14.3-6.8-14.3-16.6V190c0-14,10.2-19.3,23.1-19.3h0.3c12.9,0,23.1,5.4,23.1,19.3v5.6L696.9,195.7z"/>
<path d="M309.6,39.1V53h32.7v57.4c0,6.7-3.5,8.6-8.6,8.6h-24.2v14H334c14.2,0,23.9-5.4,23.9-19.9V39.1H309.6z"/>
<path d="M358.2,227.1c0,14.5-9.4,19.9-23.6,19.9h-0.3c-14.2,0-23.6-5.2-23.6-19.9v-56.3c0-14,9.4-19.9,23.6-19.9h0.3
	c14.2,0,23.6,5.9,23.6,19.9V185h-15.5v-11.8c0-6.6-3.2-8.6-8.2-8.6c-5,0-8.2,2-8.2,8.6v51.5c0,6.6,3.2,8.6,8.2,8.6
	c5,0,8.2-2,8.2-8.6v-11.8h15.6L358.2,227.1z"/>
</svg>
