<svg id="Layer_1" data-name="Layer 1" xmlns="http://www.w3.org/2000/svg" viewBox="0 0 752.28 752.28"><defs><style>.cls-1{fill:#0092ef;}</style></defs><path class="cls-1" d="M400,21.49,23.86,397.63,400,773.77,776.14,397.63ZM99,397.63,402.13,97.51,702.25,397.63,402.13,697.75Z" transform="translate(-23.86 -21.49)"/><path class="cls-1" d="M529.29,250.53S455,271.17,387.59,317.94c-5,3.49-19.25,15.14-19.25,15.14l-5.52,54.43-27.1,16.41s-4.34,3.31-7.72-1.13c-17-22.3-13.08-40.13-21.74-58.55-19.79-42.12-64.85-43.62-64.85-43.62,7.47,10.19,14.06,25.95,14.06,25.95s-12.39,1.44-15.78,3.65c-9.49,6.17-15,16.2-18.57,26.93-1.84,5.51-6,12.26-8.43,17.53-4.37,9.41-21.18,21.56-22.62,25.32-3.35,8.75,20.47,26.11,30.36,27.32,11,1.34,27.51-14.64,27.51-14.64s4.88.78,10.51,6.59a26.77,26.77,0,0,1,7.65,17.21S223.21,457.62,214.24,483c0,0,8.6,12,12.38,15.13,9.94,8.14,45.4,24.08,45.4,24.08L252.81,485.7c4.44-8.27,20.56-7.54,29.53-4.77,8.29,2.57,28.2,27.52,28.2,27.52l103,106.16L387,525.12s6.16-10.48,23.93-12.89l-31.73-11-11.49-38.23s14.34-5.24,18.57-5.5c40.1-2.53,41.82-.65,66-4.13,22.21-3.19,47.23-60.38,57.78-85.3C530.48,319.84,529.29,250.53,529.29,250.53Z" transform="translate(-23.86 -21.49)"/></svg>