<svg id="Layer_1" data-name="Layer 1" xmlns="http://www.w3.org/2000/svg" viewBox="0 0 60.67 61.07"><polygon points="36.18 23.72 26.89 23.72 26.89 14.33 22.88 14.33 22.88 23.72 13.59 23.72 13.59 27.73 22.88 27.73 22.88 36.91 26.89 36.91 26.89 27.73 36.18 27.73 36.18 23.72" style="fill:#9a9abc"/><path d="M42.43,36.78l-1.34,1.34-1.72-1.73A18,18,0,1,0,36,39.82l1.68,1.67-1.34,1.34,12.95,13,6.05-6.05ZM24.89,39.33A13.71,13.71,0,1,1,38.6,25.62,13.71,13.71,0,0,1,24.89,39.33Z" style="fill:#9a9abc"/></svg>